<svg width="64" height="64" viewBox="0 0 64 64" fill="none" xmlns="http://www.w3.org/2000/svg">
<path d="M46.78 23.225C48.8373 23.225 50.505 21.5573 50.505 19.5C50.505 17.4428 48.8373 15.775 46.78 15.775C44.7227 15.775 43.055 17.4428 43.055 19.5C43.055 21.5573 44.7227 23.225 46.78 23.225Z" fill="white"/>
<path d="M52.13 27.925C54.1873 27.925 55.855 26.2572 55.855 24.2C55.855 22.1427 54.1873 20.475 52.13 20.475C50.0728 20.475 48.405 22.1427 48.405 24.2C48.405 26.2572 50.0728 27.925 52.13 27.925Z" fill="white"/>
<path d="M47.265 33.11C49.3222 33.11 50.99 31.4422 50.99 29.385C50.99 27.3277 49.3222 25.66 47.265 25.66C45.2077 25.66 43.54 27.3277 43.54 29.385C43.54 31.4422 45.2077 33.11 47.265 33.11Z" fill="white"/>
<path d="M41.76 28.245C43.8172 28.245 45.485 26.5772 45.485 24.52C45.485 22.4627 43.8172 20.795 41.76 20.795C39.7027 20.795 38.035 22.4627 38.035 24.52C38.035 26.5772 39.7027 28.245 41.76 28.245Z" fill="white"/>
<path d="M17.155 34.39C22.5232 34.39 26.875 30.0382 26.875 24.67C26.875 19.3018 22.5232 14.95 17.155 14.95C11.7868 14.95 7.435 19.3018 7.435 24.67C7.435 30.0382 11.7868 34.39 17.155 34.39Z" fill="#2F2F2F"/>
<path d="M23.075 22.75H18.945V18.62C18.945 18.47 18.825 18.35 18.67 18.35H15.68C15.53 18.35 15.41 18.47 15.41 18.62V22.75H11.28C11.13 22.75 11.01 22.87 11.01 23.02V26.015C11.01 26.165 11.13 26.285 11.28 26.285H15.41V30.415C15.41 30.565 15.535 30.69 15.68 30.69H18.67C18.82 30.69 18.945 30.565 18.945 30.415V26.285H23.075C23.225 26.285 23.35 26.16 23.35 26.015V23.02C23.35 22.875 23.225 22.75 23.075 22.75Z" fill="white"/>
<path fill-rule="evenodd" clip-rule="evenodd" d="M25.64 24.52C25.64 29.195 21.85 32.985 17.18 32.985C12.505 32.985 8.72001 29.195 8.72001 24.52C8.72001 19.845 12.505 16.055 17.18 16.055C21.85 16.055 25.64 19.845 25.64 24.52ZM17.175 16.055C12.5 16.055 8.71501 19.845 8.71501 24.52C8.71501 29.195 12.5 32.985 17.175 32.985C21.85 32.985 25.635 29.195 25.635 24.52C25.64 19.845 21.85 16.055 17.175 16.055ZM46.825 16.85C46.4987 16.85 46.1755 16.9143 45.874 17.0392C45.5726 17.1641 45.2986 17.3471 45.0679 17.5779C44.8371 17.8086 44.6541 18.0826 44.5292 18.3841C44.4043 18.6856 44.34 19.0087 44.34 19.335C44.34 19.6614 44.4043 19.9845 44.5292 20.286C44.6541 20.5875 44.8371 20.8614 45.0679 21.0922C45.2986 21.3229 45.5726 21.506 45.874 21.6309C46.1755 21.7558 46.4987 21.82 46.825 21.82C47.4841 21.82 48.1161 21.5582 48.5822 21.0922C49.0482 20.6262 49.31 19.9941 49.31 19.335C49.31 18.676 49.0482 18.0439 48.5822 17.5779C48.1161 17.1118 47.4841 16.85 46.825 16.85ZM39.155 24.52C39.155 24.8464 39.2193 25.1695 39.3442 25.471C39.4691 25.7725 39.6521 26.0464 39.8829 26.2772C40.1136 26.5079 40.3876 26.691 40.689 26.8159C40.9905 26.9408 41.3137 27.005 41.64 27.005C41.9664 27.005 42.2895 26.9408 42.591 26.8159C42.8925 26.691 43.1664 26.5079 43.3972 26.2772C43.6279 26.0464 43.811 25.7725 43.9359 25.471C44.0607 25.1695 44.125 24.8464 44.125 24.52C44.125 23.861 43.8632 23.2289 43.3972 22.7629C42.9311 22.2968 42.2991 22.035 41.64 22.035C40.981 22.035 40.3489 22.2968 39.8829 22.7629C39.4168 23.2289 39.155 23.861 39.155 24.52ZM46.825 32.19C47.1514 32.19 47.4745 32.1258 47.776 32.0009C48.0775 31.876 48.3514 31.6929 48.5822 31.4622C48.8129 31.2314 48.996 30.9575 49.1209 30.656C49.2457 30.3545 49.31 30.0314 49.31 29.705C49.31 29.3787 49.2457 29.0556 49.1209 28.7541C48.996 28.4526 48.8129 28.1786 48.5822 27.9479C48.3514 27.7171 48.0775 27.5341 47.776 27.4092C47.4745 27.2843 47.1514 27.22 46.825 27.22C46.166 27.22 45.5339 27.4818 45.0679 27.9479C44.6018 28.4139 44.34 29.046 44.34 29.705C44.34 30.3641 44.6018 30.9962 45.0679 31.4622C45.5339 31.9282 46.166 32.19 46.825 32.19ZM54.495 24.52C54.495 23.861 54.2332 23.2289 53.7672 22.7629C53.3011 22.2968 52.6691 22.035 52.01 22.035C51.351 22.035 50.7189 22.2968 50.2529 22.7629C49.7868 23.2289 49.525 23.861 49.525 24.52C49.525 25.895 50.635 27.005 52.01 27.005C52.6691 27.005 53.3011 26.7432 53.7672 26.2772C54.2332 25.8112 54.495 25.1791 54.495 24.52ZM17.175 16.055C12.5 16.055 8.71501 19.845 8.71501 24.52C8.71501 29.195 12.5 32.985 17.175 32.985C21.85 32.985 25.635 29.195 25.635 24.52C25.64 19.845 21.85 16.055 17.175 16.055ZM63.335 42.935L61.51 23.165C60.82 15.66 54.515 9.78003 46.83 9.78003H17.18C9.49502 9.78003 3.18501 15.66 2.49501 23.165L0.665014 42.935C0.240014 48.035 0.765014 52.355 4.79501 53.835C7.78501 54.93 10.865 53.835 15.285 49.275L23.75 40.045H40.24L48.705 49.275C53.125 53.835 56.21 54.93 59.195 53.835C63.23 52.35 63.76 48.035 63.335 42.935Z" fill="url(#paint0_linear_2_2)"/>
<defs>
<linearGradient id="paint0_linear_2_2" x1="31.9998" y1="9.78003" x2="31.9998" y2="54.2276" gradientUnits="userSpaceOnUse">
<stop stop-color="#FF6900"/>
<stop offset="1" stop-color="#F54A00"/>
</linearGradient>
</defs>
</svg>
